<mxfile host="app.diagrams.net" agent="Mozilla/5.0 (X11; Linux x86_64; rv:128.0) Gecko/20100101 Firefox/128.0" version="26.0.4">
  <diagram name="Page-1" id="-Mqs1Dr5-py3yci1nZ4G">
    <mxGraphModel dx="819" dy="1038" grid="1" gridSize="10" guides="1" tooltips="1" connect="1" arrows="1" fold="1" page="1" pageScale="1" pageWidth="827" pageHeight="1169" math="0" shadow="0">
      <root>
        <mxCell id="0" />
        <mxCell id="1" parent="0" />
        <mxCell id="8TRVSNnAd9o4I1YfOJwp-17" value="" style="rounded=1;whiteSpace=wrap;html=1;strokeWidth=2;dashed=1;dashPattern=1 1;fillColor=#dae8fc;strokeColor=#6c8ebf;" vertex="1" parent="1">
          <mxGeometry x="150" y="620" width="140" height="200" as="geometry" />
        </mxCell>
        <mxCell id="8TRVSNnAd9o4I1YfOJwp-1" value="&lt;font style=&quot;font-size: 16px;&quot;&gt;&lt;b&gt;h&lt;sub&gt;1&lt;/sub&gt;&lt;/b&gt;&lt;/font&gt;" style="rounded=0;whiteSpace=wrap;html=1;strokeWidth=2;fillColor=#fff2cc;strokeColor=#d6b656;" vertex="1" parent="1">
          <mxGeometry x="200" y="640" width="40" height="40" as="geometry" />
        </mxCell>
        <mxCell id="8TRVSNnAd9o4I1YfOJwp-2" style="edgeStyle=orthogonalEdgeStyle;rounded=0;orthogonalLoop=1;jettySize=auto;html=1;entryX=0.25;entryY=1;entryDx=0;entryDy=0;strokeWidth=2;fillColor=#fff2cc;strokeColor=#d6b656;" edge="1" parent="1" target="8TRVSNnAd9o4I1YfOJwp-1">
          <mxGeometry relative="1" as="geometry">
            <mxPoint x="220" y="840" as="sourcePoint" />
            <Array as="points">
              <mxPoint x="210" y="840" />
            </Array>
          </mxGeometry>
        </mxCell>
        <mxCell id="8TRVSNnAd9o4I1YfOJwp-13" style="edgeStyle=orthogonalEdgeStyle;rounded=0;orthogonalLoop=1;jettySize=auto;html=1;entryX=0.333;entryY=1;entryDx=0;entryDy=0;entryPerimeter=0;fillColor=#d5e8d4;strokeColor=#82b366;strokeWidth=2;" edge="1" parent="1" source="8TRVSNnAd9o4I1YfOJwp-3" target="8TRVSNnAd9o4I1YfOJwp-10">
          <mxGeometry relative="1" as="geometry">
            <Array as="points">
              <mxPoint x="220" y="850" />
              <mxPoint x="173" y="850" />
              <mxPoint x="173" y="800" />
            </Array>
          </mxGeometry>
        </mxCell>
        <mxCell id="8TRVSNnAd9o4I1YfOJwp-14" style="edgeStyle=orthogonalEdgeStyle;rounded=0;orthogonalLoop=1;jettySize=auto;html=1;entryX=0.75;entryY=1;entryDx=0;entryDy=0;strokeWidth=2;fillColor=#d5e8d4;strokeColor=#82b366;" edge="1" parent="1" source="8TRVSNnAd9o4I1YfOJwp-3" target="8TRVSNnAd9o4I1YfOJwp-1">
          <mxGeometry relative="1" as="geometry">
            <Array as="points">
              <mxPoint x="220" y="850" />
              <mxPoint x="230" y="850" />
            </Array>
          </mxGeometry>
        </mxCell>
        <mxCell id="8TRVSNnAd9o4I1YfOJwp-3" value="&lt;font style=&quot;font-size: 16px;&quot;&gt;&lt;b&gt;x&lt;sub&gt;1&lt;/sub&gt;&lt;/b&gt;&lt;/font&gt;" style="rounded=0;whiteSpace=wrap;html=1;strokeWidth=2;fillColor=#d5e8d4;strokeColor=#82b366;" vertex="1" parent="1">
          <mxGeometry x="200" y="880" width="40" height="40" as="geometry" />
        </mxCell>
        <mxCell id="8TRVSNnAd9o4I1YfOJwp-4" style="edgeStyle=orthogonalEdgeStyle;rounded=0;orthogonalLoop=1;jettySize=auto;html=1;entryX=0.25;entryY=1;entryDx=0;entryDy=0;strokeWidth=2;fillColor=#fff2cc;strokeColor=#d6b656;" edge="1" parent="1" source="8TRVSNnAd9o4I1YfOJwp-5" target="8TRVSNnAd9o4I1YfOJwp-11">
          <mxGeometry relative="1" as="geometry">
            <Array as="points">
              <mxPoint x="120" y="660" />
              <mxPoint x="120" y="840" />
              <mxPoint x="250" y="840" />
            </Array>
          </mxGeometry>
        </mxCell>
        <mxCell id="8TRVSNnAd9o4I1YfOJwp-12" style="edgeStyle=orthogonalEdgeStyle;rounded=0;orthogonalLoop=1;jettySize=auto;html=1;entryX=0.75;entryY=1;entryDx=0;entryDy=0;strokeWidth=2;fillColor=#fff2cc;strokeColor=#d6b656;" edge="1" parent="1" source="8TRVSNnAd9o4I1YfOJwp-5" target="8TRVSNnAd9o4I1YfOJwp-10">
          <mxGeometry relative="1" as="geometry">
            <Array as="points">
              <mxPoint x="120" y="660" />
              <mxPoint x="120" y="840" />
              <mxPoint x="190" y="840" />
            </Array>
          </mxGeometry>
        </mxCell>
        <mxCell id="8TRVSNnAd9o4I1YfOJwp-5" value="&lt;font style=&quot;font-size: 16px;&quot;&gt;&lt;b&gt;h&lt;sub&gt;0&lt;/sub&gt;&lt;/b&gt;&lt;/font&gt;" style="rounded=0;whiteSpace=wrap;html=1;strokeWidth=2;fillColor=#fff2cc;strokeColor=#d6b656;" vertex="1" parent="1">
          <mxGeometry x="40" y="640" width="40" height="40" as="geometry" />
        </mxCell>
        <mxCell id="8TRVSNnAd9o4I1YfOJwp-6" value="" style="edgeStyle=orthogonalEdgeStyle;rounded=0;orthogonalLoop=1;jettySize=auto;html=1;entryX=0.75;entryY=1;entryDx=0;entryDy=0;strokeWidth=2;fillColor=#d5e8d4;strokeColor=#82b366;" edge="1" parent="1" source="8TRVSNnAd9o4I1YfOJwp-3" target="8TRVSNnAd9o4I1YfOJwp-11">
          <mxGeometry relative="1" as="geometry">
            <mxPoint x="220" y="800" as="sourcePoint" />
            <mxPoint x="220" y="750" as="targetPoint" />
            <Array as="points">
              <mxPoint x="220" y="850" />
              <mxPoint x="270" y="850" />
            </Array>
          </mxGeometry>
        </mxCell>
        <mxCell id="8TRVSNnAd9o4I1YfOJwp-16" style="edgeStyle=orthogonalEdgeStyle;rounded=0;orthogonalLoop=1;jettySize=auto;html=1;entryX=0;entryY=1;entryDx=0;entryDy=0;strokeWidth=2;fillColor=#e1d5e7;strokeColor=#9673a6;" edge="1" parent="1" source="8TRVSNnAd9o4I1YfOJwp-10" target="8TRVSNnAd9o4I1YfOJwp-1">
          <mxGeometry relative="1" as="geometry" />
        </mxCell>
        <mxCell id="8TRVSNnAd9o4I1YfOJwp-10" value="&lt;font style=&quot;font-size: 16px;&quot;&gt;&lt;b&gt;z&lt;sub&gt;1&lt;/sub&gt;&lt;/b&gt;&lt;/font&gt;" style="rounded=0;whiteSpace=wrap;html=1;strokeWidth=2;fillColor=#e1d5e7;strokeColor=#9673a6;" vertex="1" parent="1">
          <mxGeometry x="160" y="760" width="40" height="40" as="geometry" />
        </mxCell>
        <mxCell id="8TRVSNnAd9o4I1YfOJwp-15" style="edgeStyle=orthogonalEdgeStyle;rounded=0;orthogonalLoop=1;jettySize=auto;html=1;entryX=1;entryY=1;entryDx=0;entryDy=0;strokeWidth=2;fillColor=#f8cecc;strokeColor=#b85450;" edge="1" parent="1" source="8TRVSNnAd9o4I1YfOJwp-11" target="8TRVSNnAd9o4I1YfOJwp-1">
          <mxGeometry relative="1" as="geometry" />
        </mxCell>
        <mxCell id="8TRVSNnAd9o4I1YfOJwp-11" value="&lt;font style=&quot;font-size: 16px;&quot;&gt;&lt;b&gt;r&lt;sub&gt;1&lt;/sub&gt;&lt;/b&gt;&lt;/font&gt;" style="rounded=0;whiteSpace=wrap;html=1;strokeWidth=2;fillColor=#f8cecc;strokeColor=#b85450;" vertex="1" parent="1">
          <mxGeometry x="240" y="760" width="40" height="40" as="geometry" />
        </mxCell>
        <mxCell id="8TRVSNnAd9o4I1YfOJwp-18" value="&lt;font style=&quot;color: light-dark(rgb(26, 95, 180), rgb(237, 237, 237)); font-size: 9px;&quot;&gt;GRU Cell&lt;/font&gt;" style="text;html=1;align=center;verticalAlign=middle;whiteSpace=wrap;rounded=0;" vertex="1" parent="1">
          <mxGeometry x="195" y="600" width="50" height="20" as="geometry" />
        </mxCell>
        <mxCell id="8TRVSNnAd9o4I1YfOJwp-19" value="" style="rounded=1;whiteSpace=wrap;html=1;strokeWidth=2;dashed=1;dashPattern=1 1;fillColor=#dae8fc;strokeColor=#6c8ebf;" vertex="1" parent="1">
          <mxGeometry x="350" y="620" width="140" height="200" as="geometry" />
        </mxCell>
        <mxCell id="8TRVSNnAd9o4I1YfOJwp-20" value="&lt;font style=&quot;font-size: 16px;&quot;&gt;&lt;b&gt;h&lt;sub&gt;2&lt;/sub&gt;&lt;/b&gt;&lt;/font&gt;" style="rounded=0;whiteSpace=wrap;html=1;strokeWidth=2;fillColor=#fff2cc;strokeColor=#d6b656;" vertex="1" parent="1">
          <mxGeometry x="400" y="640" width="40" height="40" as="geometry" />
        </mxCell>
        <mxCell id="8TRVSNnAd9o4I1YfOJwp-21" style="edgeStyle=orthogonalEdgeStyle;rounded=0;orthogonalLoop=1;jettySize=auto;html=1;entryX=0.25;entryY=1;entryDx=0;entryDy=0;strokeWidth=2;fillColor=#fff2cc;strokeColor=#d6b656;" edge="1" parent="1" target="8TRVSNnAd9o4I1YfOJwp-20">
          <mxGeometry relative="1" as="geometry">
            <mxPoint x="420" y="840" as="sourcePoint" />
            <Array as="points">
              <mxPoint x="410" y="840" />
            </Array>
          </mxGeometry>
        </mxCell>
        <mxCell id="8TRVSNnAd9o4I1YfOJwp-22" style="edgeStyle=orthogonalEdgeStyle;rounded=0;orthogonalLoop=1;jettySize=auto;html=1;entryX=0.333;entryY=1;entryDx=0;entryDy=0;entryPerimeter=0;fillColor=#d5e8d4;strokeColor=#82b366;strokeWidth=2;" edge="1" parent="1" source="8TRVSNnAd9o4I1YfOJwp-24" target="8TRVSNnAd9o4I1YfOJwp-29">
          <mxGeometry relative="1" as="geometry">
            <Array as="points">
              <mxPoint x="420" y="850" />
              <mxPoint x="373" y="850" />
              <mxPoint x="373" y="800" />
            </Array>
          </mxGeometry>
        </mxCell>
        <mxCell id="8TRVSNnAd9o4I1YfOJwp-23" style="edgeStyle=orthogonalEdgeStyle;rounded=0;orthogonalLoop=1;jettySize=auto;html=1;entryX=0.75;entryY=1;entryDx=0;entryDy=0;strokeWidth=2;fillColor=#d5e8d4;strokeColor=#82b366;" edge="1" parent="1" source="8TRVSNnAd9o4I1YfOJwp-24" target="8TRVSNnAd9o4I1YfOJwp-20">
          <mxGeometry relative="1" as="geometry">
            <Array as="points">
              <mxPoint x="420" y="850" />
              <mxPoint x="430" y="850" />
            </Array>
          </mxGeometry>
        </mxCell>
        <mxCell id="8TRVSNnAd9o4I1YfOJwp-24" value="&lt;font style=&quot;font-size: 16px;&quot;&gt;&lt;b&gt;x&lt;sub&gt;2&lt;/sub&gt;&lt;/b&gt;&lt;/font&gt;" style="rounded=0;whiteSpace=wrap;html=1;strokeWidth=2;fillColor=#d5e8d4;strokeColor=#82b366;" vertex="1" parent="1">
          <mxGeometry x="400" y="880" width="40" height="40" as="geometry" />
        </mxCell>
        <mxCell id="8TRVSNnAd9o4I1YfOJwp-25" style="edgeStyle=orthogonalEdgeStyle;rounded=0;orthogonalLoop=1;jettySize=auto;html=1;entryX=0.25;entryY=1;entryDx=0;entryDy=0;strokeWidth=2;fillColor=#fff2cc;strokeColor=#d6b656;exitX=1;exitY=0.5;exitDx=0;exitDy=0;" edge="1" parent="1" target="8TRVSNnAd9o4I1YfOJwp-31" source="8TRVSNnAd9o4I1YfOJwp-1">
          <mxGeometry relative="1" as="geometry">
            <Array as="points">
              <mxPoint x="320" y="660" />
              <mxPoint x="320" y="840" />
              <mxPoint x="450" y="840" />
            </Array>
            <mxPoint x="280" y="660" as="sourcePoint" />
          </mxGeometry>
        </mxCell>
        <mxCell id="8TRVSNnAd9o4I1YfOJwp-26" style="edgeStyle=orthogonalEdgeStyle;rounded=0;orthogonalLoop=1;jettySize=auto;html=1;entryX=0.75;entryY=1;entryDx=0;entryDy=0;strokeWidth=2;fillColor=#fff2cc;strokeColor=#d6b656;" edge="1" parent="1" target="8TRVSNnAd9o4I1YfOJwp-29">
          <mxGeometry relative="1" as="geometry">
            <mxPoint x="310" y="660" as="sourcePoint" />
            <Array as="points">
              <mxPoint x="320" y="660" />
              <mxPoint x="320" y="840" />
              <mxPoint x="390" y="840" />
            </Array>
          </mxGeometry>
        </mxCell>
        <mxCell id="8TRVSNnAd9o4I1YfOJwp-27" value="" style="edgeStyle=orthogonalEdgeStyle;rounded=0;orthogonalLoop=1;jettySize=auto;html=1;entryX=0.75;entryY=1;entryDx=0;entryDy=0;strokeWidth=2;fillColor=#d5e8d4;strokeColor=#82b366;" edge="1" parent="1" source="8TRVSNnAd9o4I1YfOJwp-24" target="8TRVSNnAd9o4I1YfOJwp-31">
          <mxGeometry relative="1" as="geometry">
            <mxPoint x="420" y="800" as="sourcePoint" />
            <mxPoint x="420" y="750" as="targetPoint" />
            <Array as="points">
              <mxPoint x="420" y="850" />
              <mxPoint x="470" y="850" />
            </Array>
          </mxGeometry>
        </mxCell>
        <mxCell id="8TRVSNnAd9o4I1YfOJwp-28" style="edgeStyle=orthogonalEdgeStyle;rounded=0;orthogonalLoop=1;jettySize=auto;html=1;entryX=0;entryY=1;entryDx=0;entryDy=0;strokeWidth=2;fillColor=#e1d5e7;strokeColor=#9673a6;" edge="1" parent="1" source="8TRVSNnAd9o4I1YfOJwp-29" target="8TRVSNnAd9o4I1YfOJwp-20">
          <mxGeometry relative="1" as="geometry" />
        </mxCell>
        <mxCell id="8TRVSNnAd9o4I1YfOJwp-29" value="&lt;font style=&quot;font-size: 16px;&quot;&gt;&lt;b&gt;z&lt;sub&gt;2&lt;/sub&gt;&lt;/b&gt;&lt;/font&gt;" style="rounded=0;whiteSpace=wrap;html=1;strokeWidth=2;fillColor=#e1d5e7;strokeColor=#9673a6;" vertex="1" parent="1">
          <mxGeometry x="360" y="760" width="40" height="40" as="geometry" />
        </mxCell>
        <mxCell id="8TRVSNnAd9o4I1YfOJwp-30" style="edgeStyle=orthogonalEdgeStyle;rounded=0;orthogonalLoop=1;jettySize=auto;html=1;entryX=1;entryY=1;entryDx=0;entryDy=0;strokeWidth=2;fillColor=#f8cecc;strokeColor=#b85450;" edge="1" parent="1" source="8TRVSNnAd9o4I1YfOJwp-31" target="8TRVSNnAd9o4I1YfOJwp-20">
          <mxGeometry relative="1" as="geometry" />
        </mxCell>
        <mxCell id="8TRVSNnAd9o4I1YfOJwp-31" value="&lt;font style=&quot;font-size: 16px;&quot;&gt;&lt;b&gt;r&lt;sub&gt;2&lt;/sub&gt;&lt;/b&gt;&lt;/font&gt;" style="rounded=0;whiteSpace=wrap;html=1;strokeWidth=2;fillColor=#f8cecc;strokeColor=#b85450;" vertex="1" parent="1">
          <mxGeometry x="440" y="760" width="40" height="40" as="geometry" />
        </mxCell>
        <mxCell id="8TRVSNnAd9o4I1YfOJwp-32" value="&lt;font style=&quot;color: light-dark(rgb(26, 95, 180), rgb(237, 237, 237)); font-size: 9px;&quot;&gt;GRU Cell&lt;/font&gt;" style="text;html=1;align=center;verticalAlign=middle;whiteSpace=wrap;rounded=0;" vertex="1" parent="1">
          <mxGeometry x="395" y="600" width="50" height="20" as="geometry" />
        </mxCell>
        <mxCell id="8TRVSNnAd9o4I1YfOJwp-33" value="" style="rounded=1;whiteSpace=wrap;html=1;strokeWidth=2;dashed=1;dashPattern=1 1;fillColor=#dae8fc;strokeColor=#6c8ebf;" vertex="1" parent="1">
          <mxGeometry x="550" y="620" width="140" height="200" as="geometry" />
        </mxCell>
        <mxCell id="8TRVSNnAd9o4I1YfOJwp-34" value="&lt;font style=&quot;font-size: 16px;&quot;&gt;&lt;b&gt;h&lt;sub&gt;3&lt;/sub&gt;&lt;/b&gt;&lt;/font&gt;" style="rounded=0;whiteSpace=wrap;html=1;strokeWidth=2;fillColor=#fff2cc;strokeColor=#d6b656;" vertex="1" parent="1">
          <mxGeometry x="600" y="640" width="40" height="40" as="geometry" />
        </mxCell>
        <mxCell id="8TRVSNnAd9o4I1YfOJwp-35" style="edgeStyle=orthogonalEdgeStyle;rounded=0;orthogonalLoop=1;jettySize=auto;html=1;entryX=0.25;entryY=1;entryDx=0;entryDy=0;strokeWidth=2;fillColor=#fff2cc;strokeColor=#d6b656;" edge="1" parent="1" target="8TRVSNnAd9o4I1YfOJwp-34">
          <mxGeometry relative="1" as="geometry">
            <mxPoint x="620" y="840" as="sourcePoint" />
            <Array as="points">
              <mxPoint x="610" y="840" />
            </Array>
          </mxGeometry>
        </mxCell>
        <mxCell id="8TRVSNnAd9o4I1YfOJwp-36" style="edgeStyle=orthogonalEdgeStyle;rounded=0;orthogonalLoop=1;jettySize=auto;html=1;entryX=0.333;entryY=1;entryDx=0;entryDy=0;entryPerimeter=0;fillColor=#d5e8d4;strokeColor=#82b366;strokeWidth=2;" edge="1" parent="1" source="8TRVSNnAd9o4I1YfOJwp-38" target="8TRVSNnAd9o4I1YfOJwp-43">
          <mxGeometry relative="1" as="geometry">
            <Array as="points">
              <mxPoint x="620" y="850" />
              <mxPoint x="573" y="850" />
              <mxPoint x="573" y="800" />
            </Array>
          </mxGeometry>
        </mxCell>
        <mxCell id="8TRVSNnAd9o4I1YfOJwp-37" style="edgeStyle=orthogonalEdgeStyle;rounded=0;orthogonalLoop=1;jettySize=auto;html=1;entryX=0.75;entryY=1;entryDx=0;entryDy=0;strokeWidth=2;fillColor=#d5e8d4;strokeColor=#82b366;" edge="1" parent="1" source="8TRVSNnAd9o4I1YfOJwp-38" target="8TRVSNnAd9o4I1YfOJwp-34">
          <mxGeometry relative="1" as="geometry">
            <Array as="points">
              <mxPoint x="620" y="850" />
              <mxPoint x="630" y="850" />
            </Array>
          </mxGeometry>
        </mxCell>
        <mxCell id="8TRVSNnAd9o4I1YfOJwp-38" value="&lt;font style=&quot;font-size: 16px;&quot;&gt;&lt;b&gt;x&lt;sub&gt;3&lt;/sub&gt;&lt;/b&gt;&lt;/font&gt;" style="rounded=0;whiteSpace=wrap;html=1;strokeWidth=2;fillColor=#d5e8d4;strokeColor=#82b366;" vertex="1" parent="1">
          <mxGeometry x="600" y="880" width="40" height="40" as="geometry" />
        </mxCell>
        <mxCell id="8TRVSNnAd9o4I1YfOJwp-39" style="edgeStyle=orthogonalEdgeStyle;rounded=0;orthogonalLoop=1;jettySize=auto;html=1;entryX=0.25;entryY=1;entryDx=0;entryDy=0;strokeWidth=2;fillColor=#fff2cc;strokeColor=#d6b656;exitX=1;exitY=0.5;exitDx=0;exitDy=0;" edge="1" parent="1" target="8TRVSNnAd9o4I1YfOJwp-45">
          <mxGeometry relative="1" as="geometry">
            <Array as="points">
              <mxPoint x="520" y="660" />
              <mxPoint x="520" y="840" />
              <mxPoint x="650" y="840" />
            </Array>
            <mxPoint x="440" y="660" as="sourcePoint" />
          </mxGeometry>
        </mxCell>
        <mxCell id="8TRVSNnAd9o4I1YfOJwp-40" style="edgeStyle=orthogonalEdgeStyle;rounded=0;orthogonalLoop=1;jettySize=auto;html=1;entryX=0.75;entryY=1;entryDx=0;entryDy=0;strokeWidth=2;fillColor=#fff2cc;strokeColor=#d6b656;" edge="1" parent="1" target="8TRVSNnAd9o4I1YfOJwp-43">
          <mxGeometry relative="1" as="geometry">
            <mxPoint x="510" y="660" as="sourcePoint" />
            <Array as="points">
              <mxPoint x="520" y="660" />
              <mxPoint x="520" y="840" />
              <mxPoint x="590" y="840" />
            </Array>
          </mxGeometry>
        </mxCell>
        <mxCell id="8TRVSNnAd9o4I1YfOJwp-41" value="" style="edgeStyle=orthogonalEdgeStyle;rounded=0;orthogonalLoop=1;jettySize=auto;html=1;entryX=0.75;entryY=1;entryDx=0;entryDy=0;strokeWidth=2;fillColor=#d5e8d4;strokeColor=#82b366;" edge="1" parent="1" source="8TRVSNnAd9o4I1YfOJwp-38" target="8TRVSNnAd9o4I1YfOJwp-45">
          <mxGeometry relative="1" as="geometry">
            <mxPoint x="620" y="800" as="sourcePoint" />
            <mxPoint x="620" y="750" as="targetPoint" />
            <Array as="points">
              <mxPoint x="620" y="850" />
              <mxPoint x="670" y="850" />
            </Array>
          </mxGeometry>
        </mxCell>
        <mxCell id="8TRVSNnAd9o4I1YfOJwp-42" style="edgeStyle=orthogonalEdgeStyle;rounded=0;orthogonalLoop=1;jettySize=auto;html=1;entryX=0;entryY=1;entryDx=0;entryDy=0;strokeWidth=2;fillColor=#e1d5e7;strokeColor=#9673a6;" edge="1" parent="1" source="8TRVSNnAd9o4I1YfOJwp-43" target="8TRVSNnAd9o4I1YfOJwp-34">
          <mxGeometry relative="1" as="geometry" />
        </mxCell>
        <mxCell id="8TRVSNnAd9o4I1YfOJwp-43" value="&lt;font style=&quot;font-size: 16px;&quot;&gt;&lt;b&gt;z&lt;sub&gt;3&lt;/sub&gt;&lt;/b&gt;&lt;/font&gt;" style="rounded=0;whiteSpace=wrap;html=1;strokeWidth=2;fillColor=#e1d5e7;strokeColor=#9673a6;" vertex="1" parent="1">
          <mxGeometry x="560" y="760" width="40" height="40" as="geometry" />
        </mxCell>
        <mxCell id="8TRVSNnAd9o4I1YfOJwp-44" style="edgeStyle=orthogonalEdgeStyle;rounded=0;orthogonalLoop=1;jettySize=auto;html=1;entryX=1;entryY=1;entryDx=0;entryDy=0;strokeWidth=2;fillColor=#f8cecc;strokeColor=#b85450;" edge="1" parent="1" source="8TRVSNnAd9o4I1YfOJwp-45" target="8TRVSNnAd9o4I1YfOJwp-34">
          <mxGeometry relative="1" as="geometry" />
        </mxCell>
        <mxCell id="8TRVSNnAd9o4I1YfOJwp-45" value="&lt;font style=&quot;font-size: 16px;&quot;&gt;&lt;b&gt;r&lt;sub&gt;3&lt;/sub&gt;&lt;/b&gt;&lt;/font&gt;" style="rounded=0;whiteSpace=wrap;html=1;strokeWidth=2;fillColor=#f8cecc;strokeColor=#b85450;" vertex="1" parent="1">
          <mxGeometry x="640" y="760" width="40" height="40" as="geometry" />
        </mxCell>
        <mxCell id="8TRVSNnAd9o4I1YfOJwp-46" value="&lt;font style=&quot;color: light-dark(rgb(26, 95, 180), rgb(237, 237, 237)); font-size: 9px;&quot;&gt;GRU Cell&lt;/font&gt;" style="text;html=1;align=center;verticalAlign=middle;whiteSpace=wrap;rounded=0;" vertex="1" parent="1">
          <mxGeometry x="595" y="600" width="50" height="20" as="geometry" />
        </mxCell>
      </root>
    </mxGraphModel>
  </diagram>
</mxfile>
